<?xml version="1.0" encoding="UTF-8" standalone="no"?>
<svg xmlns:xlink="http://www.w3.org/1999/xlink" height="13.0px" width="13.0px" xmlns="http://www.w3.org/2000/svg">
  <g transform="matrix(1.0, 0.0, 0.0, 1.0, 6.4, 6.5)">
    <use height="13.0" transform="matrix(1.0, 0.0, 0.0, 1.0, -6.4, -6.5)" width="13.0" xlink:href="#shape0"/>
  </g>
  <defs>
    <g id="shape0" transform="matrix(1.0, 0.0, 0.0, 1.0, 6.4, 6.5)">
      <path d="M0.15 0.0 L0.1 0.0 0.1 -6.0 M0.1 0.05 L0.15 6.0 M0.1 0.05 L0.1 0.0 M-4.15 -4.25 L0.1 0.0 M0.15 0.0 L4.35 4.25" fill="none" stroke="#0066ff" stroke-linecap="round" stroke-linejoin="round" stroke-width="1.0"/>
      <path d="M0.1 0.0 L0.15 0.0 4.35 -4.25 M0.1 0.05 L0.15 0.0 6.1 0.0 M0.1 0.0 L-5.9 0.0 M-4.15 4.25 L0.1 0.05" fill="none" stroke="#0066ff" stroke-linecap="round" stroke-linejoin="round" stroke-width="1.0"/>
    </g>
  </defs>
</svg>
