<?xml version="1.0" encoding="UTF-8" standalone="no"?>
<svg xmlns:xlink="http://www.w3.org/1999/xlink" height="20.0px" width="17.0px" xmlns="http://www.w3.org/2000/svg">
  <g transform="matrix(1.0, 0.0, 0.0, 1.0, 8.5, 10.0)">
    <use height="20.0" transform="matrix(1.0, 0.0, 0.0, 1.0, -8.5, -10.0)" width="17.0" xlink:href="#shape0"/>
  </g>
  <defs>
    <g id="shape0" transform="matrix(1.0, 0.0, 0.0, 1.0, 8.5, 10.0)">
      <path d="M-8.0 -3.0 L-8.0 -5.0 8.0 -5.0 8.0 -3.0 -8.0 -3.0 M-8.0 -7.0 L-8.0 -9.0 8.0 -9.0 8.0 -7.0 -8.0 -7.0 M-8.0 9.0 L-8.0 7.0 8.0 7.0 8.0 9.0 -8.0 9.0 M-8.0 5.05 L-8.0 3.05 8.0 3.05 8.0 5.05 -8.0 5.05 M8.0 1.0 L-8.0 1.0 -8.0 -1.0 8.0 -1.0 8.0 1.0" fill="#cccccc" fill-rule="evenodd" stroke="none"/>
      <path d="M8.0 -3.0 L-8.0 -3.0 M8.0 -7.0 L-8.0 -7.0 M8.0 9.0 L-8.0 9.0 M8.0 5.05 L-8.0 5.05 M8.0 1.0 L-8.0 1.0" fill="none" stroke="#666666" stroke-linecap="round" stroke-linejoin="round" stroke-width="1.0"/>
      <path d="M8.0 -10.0 L8.0 10.0 6.0 10.0 6.0 -10.0 8.0 -10.0 M-6.0 -10.0 L-6.0 10.0 -8.0 10.0 -8.0 -10.0 -6.0 -10.0" fill="#000000" fill-rule="evenodd" stroke="none"/>
    </g>
  </defs>
</svg>
