<?xml version="1.0" encoding="UTF-8" standalone="no"?>
<svg xmlns:xlink="http://www.w3.org/1999/xlink" height="382.0px" width="291.65px" xmlns="http://www.w3.org/2000/svg">
  <g transform="matrix(1.0, 0.0, 0.0, 1.0, -20.05, -20.0)">
    <use height="381.95" transform="matrix(1.0, 0.0, 0.0, 1.0, 20.05, 20.05)" width="291.65" xlink:href="#shape0"/>
  </g>
  <defs>
    <g id="shape0" transform="matrix(1.0, 0.0, 0.0, 1.0, -20.05, -20.05)">
      <path d="M163.1 82.6 L163.1 80.5 124.7 80.5 Q125.05 69.05 115.6 61.8 107.1 55.8 95.0 55.85 84.05 55.8 76.1 61.8 67.0 68.25 67.0 78.5 67.0 92.9 94.35 103.55 138.3 120.6 145.45 125.05 172.45 142.6 172.45 173.3 172.45 205.4 148.9 223.8 128.0 240.05 94.5 240.05 L77.65 238.85 Q88.55 240.9 96.35 246.95 109.8 257.3 109.8 276.25 109.75 290.0 102.3 299.1 95.0 308.2 81.7 309.75 L113.15 359.9 89.45 359.9 Q93.4 360.8 96.2 362.95 101.75 367.0 101.75 375.15 L101.75 401.05 89.45 401.05 89.45 376.45 Q89.4 368.8 83.1 368.8 76.6 368.8 76.6 376.45 L76.6 401.05 64.3 401.05 64.3 375.15 Q64.25 367.0 69.85 362.95 73.4 360.25 78.85 359.55 L48.4 308.6 48.4 359.9 20.05 359.9 20.05 237.75 65.15 237.75 74.75 238.4 Q56.4 235.1 43.3 225.3 20.55 208.55 20.05 178.4 L65.0 178.4 Q65.0 190.0 75.8 196.3 84.9 201.45 96.85 201.45 107.95 201.4 117.1 195.15 126.2 189.15 126.2 178.75 126.2 162.85 99.65 152.4 55.55 135.35 49.4 131.85 22.85 114.6 22.9 83.0 22.85 53.0 44.1 35.95 63.85 20.0 94.2 20.05 148.45 20.05 163.2 53.6 L177.9 53.6 177.9 20.05 216.05 20.05 216.05 53.6 232.7 53.6 232.7 82.6 216.05 82.6 216.05 137.7 Q216.05 147.3 232.7 150.45 L232.7 180.15 229.1 180.3 Q238.5 181.35 243.1 187.65 L243.1 181.15 260.3 181.15 260.3 166.15 Q260.25 144.4 273.2 132.3 286.15 120.0 308.25 120.05 L310.8 120.05 310.8 147.6 Q295.7 147.6 295.75 169.85 L295.75 240.65 260.3 240.65 260.3 239.3 243.1 239.3 243.1 233.4 Q239.0 238.15 232.05 239.6 260.0 244.45 277.7 265.2 299.1 290.2 299.1 332.1 L175.75 332.1 Q178.7 346.35 190.0 357.0 201.15 367.4 215.1 367.45 224.65 367.4 235.8 362.4 249.7 356.65 249.7 348.65 L299.1 348.3 Q296.85 353.5 293.95 358.25 294.9 356.85 296.1 355.75 301.45 350.65 310.65 350.65 L311.7 350.65 311.7 362.1 Q305.45 362.05 305.45 371.3 L305.45 400.6 290.75 400.6 290.75 369.75 Q290.75 363.7 293.15 359.5 282.4 376.15 263.25 386.6 240.1 399.6 212.1 399.65 176.1 399.6 152.6 377.2 147.55 372.4 143.6 367.05 145.45 370.4 145.45 375.15 L145.45 401.05 133.15 401.05 133.15 376.45 Q133.15 368.8 126.8 368.8 120.3 368.8 120.35 376.45 L120.35 401.05 108.0 401.05 108.0 375.15 Q108.0 367.0 113.55 362.95 118.4 359.25 126.8 359.25 135.15 359.25 139.9 362.95 L142.05 364.9 Q128.95 345.7 128.95 319.05 128.95 281.9 152.6 260.0 176.1 238.1 213.85 238.1 L213.95 238.1 Q208.75 235.9 204.85 231.45 197.15 222.75 197.15 209.95 197.15 197.15 204.7 188.65 210.4 182.2 218.8 180.6 L212.35 180.75 Q177.9 180.7 177.9 154.2 L177.9 82.6 163.1 82.6 M229.25 192.6 Q222.35 192.6 218.4 198.25 214.95 203.05 214.95 210.2 214.95 217.2 218.4 222.1 222.35 227.8 229.25 227.8 233.1 227.8 238.05 223.75 243.1 219.7 243.1 215.95 L243.1 206.1 Q243.05 201.25 238.6 196.95 234.0 192.6 229.25 192.6 M59.0 258.45 L48.4 258.45 48.4 291.7 59.65 291.7 Q69.75 291.7 74.35 289.3 81.0 285.95 81.0 276.75 81.0 258.45 59.0 258.45 M20.3 360.25 L32.65 360.25 32.65 384.8 Q32.65 392.45 39.0 392.45 45.45 392.45 45.45 384.8 L45.45 360.25 57.8 360.25 57.8 386.1 Q57.8 394.25 52.25 398.3 47.35 402.0 39.0 402.0 30.65 402.0 25.75 398.3 20.3 394.25 20.3 386.1 L20.3 360.25 M214.55 268.55 Q199.95 268.5 190.2 278.6 180.45 288.5 177.15 303.4 L252.15 303.4 Q249.35 288.5 239.8 278.95 228.65 268.5 214.55 268.55" fill="#ffcc00" fill-rule="evenodd" stroke="none"/>
    </g>
  </defs>
</svg>
