<?xml version="1.0" encoding="UTF-8" standalone="no"?>
<svg xmlns:xlink="http://www.w3.org/1999/xlink" height="19.0px" width="19.0px" xmlns="http://www.w3.org/2000/svg">
  <g transform="matrix(1.0, 0.0, 0.0, 1.0, 0.0, 19.0)">
    <use height="18.0" transform="matrix(1.0, 0.0, 0.0, 1.0, 0.95, -18.0)" width="18.05" xlink:href="#shape0"/>
    <use height="0.0" id="brain" transform="matrix(1.0, 0.0, 0.0, 1.0, 0.0, 0.0)" width="0.0" xlink:href="#sprite0"/>
  </g>
  <defs>
    <g id="shape0" transform="matrix(1.0, 0.0, 0.0, 1.0, -0.95, 18.0)">
      <path d="M15.75 -15.6 L15.75 -12.25 17.2 -10.75 17.45 -10.55 18.05 -9.9 18.05 -9.85 18.1 -9.85 15.75 -7.45 15.75 -4.1 12.4 -4.1 10.05 -1.7 7.7 -4.1 4.35 -4.1 4.35 -7.5 2.0 -9.85 2.0 -9.9 4.35 -12.25 4.35 -15.6 7.7 -15.6 10.05 -18.0 12.4 -15.6 15.75 -15.6" fill="#6699ff" fill-rule="evenodd" stroke="none"/>
      <path d="M17.5 -1.95 L9.65 -9.25 2.35 -1.95" fill="none" stroke="#3366ff" stroke-linecap="round" stroke-linejoin="round" stroke-width="1.0"/>
      <path d="M2.95 -4.0 L3.65 -3.9 4.4 -3.4 Q4.95 -2.8 4.95 -2.0 4.95 -1.15 4.4 -0.55 3.8 0.0 2.95 0.0 2.15 0.0 1.55 -0.55 0.95 -1.15 0.95 -2.0 0.95 -2.8 1.55 -3.4 2.15 -4.0 2.95 -4.0 M16.25 -3.85 L17.0 -4.0 Q17.85 -4.0 18.45 -3.4 19.0 -2.8 19.0 -2.0 19.0 -1.15 18.45 -0.55 17.85 0.0 17.0 0.0 16.2 0.0 15.6 -0.55 15.0 -1.15 15.0 -2.0 15.0 -2.8 15.6 -3.4 L16.25 -3.85" fill="#000099" fill-rule="evenodd" stroke="none"/>
    </g>
  </defs>
</svg>
