<?xml version="1.0" encoding="UTF-8" standalone="no"?>
<svg xmlns:xlink="http://www.w3.org/1999/xlink" height="16.7px" width="15.35px" xmlns="http://www.w3.org/2000/svg">
  <g transform="matrix(1.0, 0.0, 0.0, 1.0, -84.25, -410.95)">
    <path d="M96.15 410.95 Q97.65 410.95 98.65 412.0 99.6 413.1 99.6 415.0 99.6 416.3 99.0 417.65 98.4 419.05 96.6 421.3 L94.4 424.15 91.9 427.65 89.4 424.1 87.2 421.25 Q85.4 418.95 84.85 417.65 84.25 416.3 84.25 414.95 84.25 413.7 84.7 412.8 85.15 411.85 86.0 411.4 86.8 410.95 87.7 410.95 88.95 410.95 89.95 411.75 90.95 412.55 91.25 413.8 L91.6 414.6 91.9 414.75 92.2 414.6 92.6 413.8 Q92.95 412.45 93.9 411.7 94.85 410.95 96.15 410.95" fill="#cc0000" fill-rule="evenodd" stroke="none"/>
  </g>
</svg>
