<?xml version="1.0" encoding="UTF-8" standalone="no"?>
<svg xmlns:xlink="http://www.w3.org/1999/xlink" height="20.0px" width="19.0px" xmlns="http://www.w3.org/2000/svg">
  <g transform="matrix(1.0, 0.0, 0.0, 1.0, 0.0, 20.0)">
    <use height="20.0" transform="matrix(0.8, 0.0, 0.0, 0.8, 2.0001, -20.0)" width="20.0" xlink:href="#sprite0"/>
    <use height="15.0" transform="matrix(0.375, 0.0, 0.0, 0.625, 11.1875, -16.6875)" width="15.0" xlink:href="#sprite1"/>
    <use height="10.0" transform="matrix(0.4, 0.0, 0.0, 0.4, 11.0001, -4.0)" width="20.0" xlink:href="#sprite2"/>
    <use height="10.0" transform="matrix(0.4, 0.0, 0.0, 0.4, 1.0001, -7.5)" width="20.0" xlink:href="#sprite2"/>
    <use height="0.0" id="brain" transform="matrix(1.0, 0.0, 0.0, 1.0, 0.0, 0.0)" width="0.0" xlink:href="#sprite3"/>
  </g>
  <defs>
    <g id="sprite0" transform="matrix(1.0, 0.0, 0.0, 1.0, 10.0, 10.0)">
      <use height="20.0" transform="matrix(1.0, 0.0, 0.0, 1.0, -10.0, -10.0)" width="20.0" xlink:href="#shape0"/>
    </g>
    <g id="shape0" transform="matrix(1.0, 0.0, 0.0, 1.0, 10.0, 10.0)">
      <path d="M8.05 -5.95 Q10.0 -3.4 10.0 0.0 10.0 4.15 7.05 7.05 4.15 10.0 0.0 10.0 -4.15 10.0 -7.1 7.05 L-7.8 6.25 Q-10.0 3.6 -10.0 0.0 -10.0 -4.15 -7.1 -7.1 -4.15 -10.0 0.0 -10.0 4.15 -10.0 7.05 -7.1 L8.05 -5.95" fill="#ffcc00" fill-rule="evenodd" stroke="none"/>
    </g>
    <g id="sprite1" transform="matrix(1.0, 0.0, 0.0, 1.0, 7.5, 7.5)">
      <use height="15.0" transform="matrix(1.0, 0.0, 0.0, 1.0, -7.5, -7.5)" width="15.0" xlink:href="#shape1"/>
    </g>
    <g id="shape1" transform="matrix(1.0, 0.0, 0.0, 1.0, 7.5, 7.5)">
      <path d="M4.95 -4.95 Q7.0 -2.9 7.0 0.0 7.0 2.9 4.95 4.95 2.9 7.0 0.0 7.0 -2.9 7.0 -4.95 4.95 -7.0 2.9 -7.0 0.0 -7.0 -2.9 -4.95 -4.95 -2.9 -7.0 0.0 -7.0 2.9 -7.0 4.95 -4.95" fill="#ffffff" fill-rule="evenodd" stroke="none"/>
      <path d="M4.95 -4.95 Q7.0 -2.9 7.0 0.0 7.0 2.9 4.95 4.95 2.9 7.0 0.0 7.0 -2.9 7.0 -4.95 4.95 -7.0 2.9 -7.0 0.0 -7.0 -2.9 -4.95 -4.95 -2.9 -7.0 0.0 -7.0 2.9 -7.0 4.95 -4.95 Z" fill="none" stroke="#cc9900" stroke-linecap="round" stroke-linejoin="round" stroke-width="1.0"/>
    </g>
    <g id="sprite2" transform="matrix(1.0, 0.0, 0.0, 1.0, 10.0, 5.0)">
      <use height="10.0" transform="matrix(1.0, 0.0, 0.0, 1.0, -10.0, -5.0)" width="20.0" xlink:href="#shape2"/>
    </g>
    <g id="shape2" transform="matrix(1.0, 0.0, 0.0, 1.0, 10.0, 5.0)">
      <path d="M7.05 -2.1 Q10.0 0.85 10.0 5.0 L-10.0 5.0 Q-10.0 0.85 -7.1 -2.1 -4.15 -5.0 0.0 -5.0 4.15 -5.0 7.05 -2.1" fill="#cc9900" fill-rule="evenodd" stroke="none"/>
    </g>
  </defs>
</svg>
